<svg width="624" height="178" viewBox="0 0 624 178" fill="none" xmlns="http://www.w3.org/2000/svg">
<path d="M605.713 129.884C605.713 124.911 609.915 120.864 614.866 120.864C619.931 120.864 623.846 124.969 623.846 129.884C623.846 134.972 619.874 139.077 614.866 139.077C609.858 139.02 605.713 134.972 605.713 129.884Z" fill="#8000B1"/>
<path d="M225.742 44.4241C230.75 44.4241 234.319 47.8934 234.319 52.9238C234.319 57.9543 230.75 61.4235 225.742 61.4235C220.734 61.4235 217.28 57.9543 217.28 52.9238C217.28 47.8934 220.734 44.4241 225.742 44.4241ZM218.834 137.632V70.5593H232.592V137.632H218.834Z" fill="#000000"/>
<path d="M247.731 137.632V70.5593H261.546V79.695C265.288 72.3517 271.619 69.1716 278.93 69.1716C284.168 69.1716 288.14 70.8484 288.14 70.8484L286.701 83.569C285.953 83.2799 282.959 82.0079 278.585 82.0079C271.217 82.0079 261.604 85.9397 261.604 101.089V137.632H247.731Z" fill="#000000"/>
<path d="M291.939 104.038C291.939 84.3785 307.711 69.1716 327.916 69.1716C341.04 69.1716 352.034 76.1101 358.309 87.5587L347.66 94.8442C343.458 87.0961 335.974 82.1813 327.628 82.1813C314.734 82.1813 305.869 91.7796 305.869 104.038C305.869 116.411 314.964 126.068 327.34 126.068C336.032 126.068 343.285 121.442 347.89 113.463L358.251 120.806C352.15 131.85 340.867 139.02 327.34 139.02C307.136 139.02 291.939 123.581 291.939 104.038Z" fill="#000000"/>
<path d="M399.121 69.1716C410.46 69.1716 418.001 73.3925 422.894 79.695V70.5593H436.651V137.632H422.894V128.496C417.944 134.856 410.46 139.02 399.121 139.02C380.125 139.02 365.562 124.333 365.562 103.749C365.619 83.1643 380.125 69.1716 399.121 69.1716ZM379.377 103.749C379.377 116.122 387.953 126.588 400.79 126.588C413.684 126.588 422.836 116.122 422.836 103.749C422.836 91.3749 413.569 81.6031 400.79 81.6031C387.896 81.6031 379.377 91.3749 379.377 103.749Z" fill="#000000"/>
<path d="M450.812 137.632V70.5593H464.627V79.0012C466.872 75.5897 473.204 69.1716 485.177 69.1716C503.539 69.1716 513.21 80.6202 513.21 96.9257V137.69H499.453V99.8746C499.453 88.7729 493.408 82.3548 483.047 82.3548C472.916 82.3548 464.627 88.7729 464.627 99.8746V137.69H450.812V137.632Z" fill="#000000"/>
<path d="M556.957 69.1716C568.297 69.1716 575.838 73.3925 580.731 79.695V70.5593H594.488V137.632H580.731V128.496C575.78 134.856 568.297 139.02 556.957 139.02C537.962 139.02 523.398 124.333 523.398 103.749C523.456 83.1643 537.962 69.1716 556.957 69.1716ZM537.213 103.749C537.213 116.122 545.79 126.588 558.627 126.588C571.521 126.588 580.673 116.122 580.673 103.749C580.673 91.3749 571.406 81.6031 558.627 81.6031C545.79 81.6031 537.213 91.3749 537.213 103.749Z" fill="#000000"/>
<path d="M36.1305 164.519C36.0153 164.519 35.9002 164.519 35.7851 164.519C25.6541 164.345 16.3289 156.077 9.65164 141.217C3.20462 126.877 -0.191575 107.912 0.211364 87.8478C1.01724 45.2914 18.0558 12.2177 38.6632 12.6225C59.3858 13.0272 75.0428 46.6792 74.237 89.2933C73.834 109.357 69.8046 128.149 62.782 142.258C55.5867 156.655 46.1464 164.519 36.1305 164.519ZM4.12562 87.9635C3.78025 107.449 7.00376 125.778 13.2205 139.598C19.2646 152.954 27.2658 160.413 35.8427 160.587C44.3619 160.645 52.7085 153.59 59.2131 140.465C65.9479 126.877 69.9198 108.663 70.2651 89.1777C71.0135 49.4546 56.7955 16.9013 38.5481 16.5543C38.433 16.5543 38.3754 16.5543 38.2603 16.5543C20.1856 16.6122 4.87394 48.4716 4.12562 87.9635Z" fill="url(#paint0_linear_438_212)"/>
<path d="M17.8257 87.79C18.4013 53.9646 27.5538 23.6663 41.081 10.5988C45.8587 5.97307 50.9818 3.66022 56.2775 3.77586C77.0001 4.23843 92.6571 41.8222 91.8513 89.3512C91.2756 123.177 82.1807 153.475 68.5959 166.542C63.9334 171.052 58.9254 173.365 53.7448 173.365C53.6296 173.365 53.5145 173.365 53.3994 173.365C32.6768 172.961 17.0198 135.377 17.8257 87.79ZM55.9322 7.7077C51.8452 7.7077 47.7583 9.6158 43.844 13.432C31.0075 25.8057 22.3731 55.0632 21.7975 87.8478C21.0492 131.676 35.555 169.029 53.5145 169.433C57.7742 169.491 61.9187 167.583 65.8905 163.709C78.727 151.278 87.3614 122.078 87.937 89.2933C88.6853 45.4649 74.1795 8.11245 56.22 7.7077C56.1048 7.76552 56.0473 7.7077 55.9322 7.7077Z" fill="url(#paint1_linear_438_212)"/>
<path d="M35.2672 87.79C35.8428 51.883 45.1679 20.0814 59.0405 6.72474C63.7031 2.21469 68.5384 0.0174938 73.719 0.133136C94.4416 0.595705 110.099 39.8563 109.293 89.4668C108.717 125.374 99.392 157.175 85.5194 170.532C80.9719 174.926 76.1942 177.124 71.1863 177.124C71.0711 177.124 70.956 177.124 70.7833 177.124C50.0608 176.661 34.4613 137.401 35.2672 87.79ZM39.1814 87.8478C38.4331 133.7 52.9389 172.787 70.8984 173.192C74.8127 173.134 78.8997 171.457 82.8139 167.699C95.7655 155.209 104.803 123.755 105.378 89.409C106.127 43.5568 91.621 4.46972 73.6615 4.06497C69.7472 4.06497 65.6603 5.7996 61.746 9.55798C48.7944 22.0473 39.6995 53.502 39.1814 87.8478Z" fill="url(#paint2_linear_438_212)"/>
<path d="M88.8003 177.124C88.6852 177.124 88.5701 177.124 88.3974 177.124C67.6748 176.661 52.0178 137.401 52.8812 87.79C53.4568 51.8831 62.782 20.0814 76.6546 6.72474C81.3172 2.21469 86.1524 0.0174938 91.3331 0.133136C112.056 0.595705 127.713 39.8563 126.907 89.4668C126.331 125.374 117.006 157.175 103.133 170.532C98.586 174.869 93.8083 177.124 88.8003 177.124ZM56.7955 87.8478C56.0472 133.7 70.553 172.787 88.5125 173.192C92.3692 173.134 96.5137 171.457 100.428 167.699C113.38 155.209 122.417 123.755 122.993 89.409C123.741 43.5568 109.235 4.46972 91.2755 4.06497C91.1604 4.06497 91.1028 4.06497 90.9877 4.06497C87.0735 4.06497 83.1592 5.91525 79.3601 9.55798C66.4085 22.0473 57.3711 53.502 56.7955 87.8478Z" fill="url(#paint3_linear_438_212)"/>
<path d="M70.2652 87.79C70.8408 53.9646 79.9933 23.6663 93.5205 10.5988C98.2982 5.97307 103.364 3.66022 108.717 3.77586C129.44 4.23843 145.097 41.8222 144.291 89.3512C143.715 123.177 134.62 153.475 121.035 166.542C116.373 171.052 111.365 173.365 106.184 173.365C106.069 173.365 105.954 173.365 105.839 173.365C85.0588 172.961 69.4593 135.377 70.2652 87.79ZM108.372 7.7077C104.285 7.7077 100.198 9.6158 96.2835 13.432C83.4471 25.8057 74.8127 55.0632 74.237 87.8478C73.4887 131.676 87.9945 169.029 105.954 169.433C110.156 169.491 114.358 167.583 118.33 163.709C131.167 151.278 139.801 122.078 140.377 89.2933C141.125 45.4649 126.619 8.11245 108.66 7.7077C108.544 7.76552 108.429 7.7077 108.372 7.7077Z" fill="url(#paint4_linear_438_212)"/>
<path d="M87.9369 87.9056C88.7428 45.5806 105.436 12.6803 125.986 12.6803C126.101 12.6803 126.216 12.6803 126.331 12.6803C147.054 13.0851 162.711 46.737 161.905 89.3512C161.502 109.415 157.473 128.207 150.45 142.315C143.312 156.713 133.872 164.576 123.856 164.576C123.741 164.576 123.626 164.576 123.511 164.576C113.38 164.403 104.054 156.135 97.3772 141.275C90.8726 126.877 87.534 107.912 87.9369 87.9056ZM91.8512 87.9635C91.5058 107.449 94.7293 125.778 100.946 139.598C106.99 152.954 114.991 160.413 123.568 160.587C132.087 160.645 140.434 153.59 146.939 140.465C153.674 126.877 157.645 108.663 157.991 89.1777C158.739 49.4546 144.521 16.9013 126.274 16.5543C126.159 16.5543 126.101 16.5543 125.986 16.5543C107.911 16.6122 92.5995 48.4716 91.8512 87.9635Z" fill="url(#paint5_linear_438_212)"/>
<path d="M165.531 41.3596C182.742 41.3596 197.939 49.8015 207.034 64.4881L195.694 72.4674C188.096 61.0188 177.965 55.2945 165.474 55.2945C146.075 55.2945 132.202 69.9811 132.202 90.2185C132.202 110.572 146.305 125.142 165.819 125.142C178.368 125.142 189.074 119.245 196.442 108.374L207.379 116.007C198.457 130.52 183.145 139.077 165.877 139.077C138.477 139.077 116.948 117.973 116.948 90.2185C117.006 62.5222 138.189 41.3596 165.531 41.3596Z" fill="#000000"/>
<defs>
<linearGradient id="paint0_linear_438_212" x1="0.273411" y1="88.0424" x2="74.2689" y2="89.4497" gradientUnits="userSpaceOnUse">
<stop offset="0.1601" stop-color="#8000B1"/>
<stop offset="0.566" stop-color="#560D6E"/>
<stop offset="0.6922" stop-color="#B6167C"/>
<stop offset="0.9386" stop-color="#EF8474"/>
</linearGradient>
<linearGradient id="paint1_linear_438_212" x1="17.9171" y1="88.0433" x2="91.9166" y2="89.4506" gradientUnits="userSpaceOnUse">
<stop offset="0.1601" stop-color="#8000B1"/>
<stop offset="0.566" stop-color="#560D6E"/>
<stop offset="0.6922" stop-color="#B6167C"/>
<stop offset="0.9386" stop-color="#EF8474"/>
</linearGradient>
<linearGradient id="paint2_linear_438_212" x1="35.305" y1="88.0432" x2="109.309" y2="89.4507" gradientUnits="userSpaceOnUse">
<stop offset="0.1601" stop-color="#8000B1"/>
<stop offset="0.566" stop-color="#560D6E"/>
<stop offset="0.6922" stop-color="#B6167C"/>
<stop offset="0.9386" stop-color="#EF8474"/>
</linearGradient>
<linearGradient id="paint3_linear_438_212" x1="52.9531" y1="88.043" x2="126.955" y2="89.4504" gradientUnits="userSpaceOnUse">
<stop offset="0.1601" stop-color="#8000B1"/>
<stop offset="0.566" stop-color="#560D6E"/>
<stop offset="0.6922" stop-color="#B6167C"/>
<stop offset="0.9386" stop-color="#EF8474"/>
</linearGradient>
<linearGradient id="paint4_linear_438_212" x1="70.3434" y1="88.0425" x2="144.343" y2="89.4498" gradientUnits="userSpaceOnUse">
<stop offset="0.1601" stop-color="#8000B1"/>
<stop offset="0.566" stop-color="#560D6E"/>
<stop offset="0.6922" stop-color="#B6167C"/>
<stop offset="0.9386" stop-color="#EF8474"/>
</linearGradient>
<linearGradient id="paint5_linear_438_212" x1="87.9904" y1="88.0411" x2="161.989" y2="89.4484" gradientUnits="userSpaceOnUse">
<stop offset="0.1601" stop-color="#8000B1"/>
<stop offset="0.566" stop-color="#560D6E"/>
<stop offset="0.6922" stop-color="#B6167C"/>
<stop offset="0.9386" stop-color="#EF8474"/>
</linearGradient>
</defs>
</svg>
