<svg xmlns="http://www.w3.org/2000/svg" viewBox="0 0 360 160" fill="none">
  <g transform="translate(50, 80)">
    <circle cx="0" cy="0" r="36" stroke="#1B5E3B" stroke-width="2.5" fill="none"
            stroke-dasharray="174 53" stroke-dashoffset="-26" stroke-linecap="round"/>
    <g stroke="#1B5E3B" stroke-width="1.3" stroke-linecap="round">
      <line x1="0" y1="-39" x2="0" y2="-34"/>
      <line x1="19.5" y1="-33.8" x2="17" y2="-29.4"/>
      <line x1="33.8" y1="-19.5" x2="29.4" y2="-17"/>
      <line x1="33.8" y1="19.5" x2="29.4" y2="17"/>
      <line x1="19.5" y1="33.8" x2="17" y2="29.4"/>
      <line x1="0" y1="39" x2="0" y2="34"/>
      <line x1="-19.5" y1="33.8" x2="-17" y2="29.4"/>
      <line x1="-33.8" y1="19.5" x2="-29.4" y2="17"/>
      <line x1="-39" y1="0" x2="-34" y2="0"/>
      <line x1="-33.8" y1="-19.5" x2="-29.4" y2="-17"/>
      <line x1="-19.5" y1="-33.8" x2="-17" y2="-29.4"/>
    </g>
    <circle cx="0" cy="0" r="26" stroke="#2A7A4F" stroke-width="1.6" fill="none"
            stroke-dasharray="140 25" stroke-dashoffset="-11" stroke-linecap="round"/>
    <circle cx="0" cy="0" r="16" stroke="#C4A94F" stroke-width="1.6" fill="none"/>
    <path d="M-6 1 L-2 5.5 L7.5 -5" stroke="#1B5E3B" stroke-width="3.2"
          fill="none" stroke-linecap="round" stroke-linejoin="round"/>
    <circle cx="7.5" cy="-5" r="2" fill="#C4A94F"/>
  </g>
  <text x="104" y="80" font-family="Georgia, serif" font-size="33" font-weight="bold"
        fill="#191E19" letter-spacing="-0.3" dominant-baseline="central">Detent<tspan fill="#C4A94F">.ai</tspan></text>
</svg>
